<?xml version="1.0" encoding="UTF-8"?>
<svg width="458px" height="60px" viewBox="0 0 458 60" version="1.1" xmlns="http://www.w3.org/2000/svg" xmlns:xlink="http://www.w3.org/1999/xlink">
    <title>androiddevtools</title>
    <g id="Page-1" stroke="none" stroke-width="1" fill="none" fill-rule="evenodd">
        <g id="130-X-64" transform="translate(-23.000000, -73.000000)">
            <g id="androiddevtools" transform="translate(23.000000, 63.000000)">
                <text id="A" font-family=".AppleSystemUIFont" font-size="60" font-weight="normal" fill="#FFFFFF">
                    <tspan x="0" y="68">A</tspan>
                </text>
                <g id="n" transform="translate(55.531604, 48.317481) rotate(-135.000000) translate(-55.531604, -48.317481) translate(37.667643, 31.324933)" fill="#FFFFFF">
                    <path d="M26.0758151,4.25659814 C30.607067,8.56667096 31.6883816,14.9074129 29.335378,20.1957863 L34.0594353,24.6884715 L34.056,24.69 L34.2260821,24.8591258 C36.2857483,26.9967942 36.2269007,30.318507 34.0495393,32.3890517 C31.8140105,34.517662 28.1867014,34.5165611 25.9494365,32.3890517 L25.951,32.387 L21.235,27.901 L21.2332302,27.9030525 C15.6730539,30.1428547 9.00581916,29.1157053 4.47399771,24.8039897 C0.475740208,21.0014452 -0.842544715,15.6157916 0.518564181,10.7673822 C1.18812331,8.38170935 11.2239869,23.5197777 17.9757123,17.0987179 C24.7257015,10.6771076 8.81658337,1.12726037 11.3246812,0.491484593 C16.4207379,-0.800433727 22.0798724,0.454604103 26.0758151,4.25659814 Z M28.6496637,29.8200773 C29.3950329,30.5296141 30.6033643,30.5301645 31.3493121,29.8200773 C32.0969961,29.1105406 32.09526,27.9611901 31.3493121,27.2516534 C30.6033643,26.5421166 29.3950329,26.5421166 28.6496637,27.2516534 C27.9037158,27.962291 27.9037158,29.1116415 28.6496637,29.8200773 L28.6496637,29.8200773 Z" id="Shape"></path>
                </g>
                <g id="dro" transform="translate(72.000000, 10.000000)" fill="#FFFFFF" font-family=".AppleSystemUIFont" font-size="60" font-weight="normal">
                    <text>
                        <tspan x="0" y="58">dro</tspan>
                    </text>
                </g>
                <g id="dDev" transform="translate(180.000000, 10.000000)">
                    <g id="android" transform="translate(51.492328, 40.800006) scale(-1, 1) translate(-51.492328, -40.800006) translate(45.000000, 33.616907)" fill="#346473">
                        <path d="M12.1596479,5.15842254 L12.9846563,6.48394366 L12.9846563,14.3661972 L5.06817133,14.3661972 L2.54520375,10.3091831 L12.1596479,5.15842254 Z M7.68302848,2.56292958 C9.24515092,2.56292958 10.6135063,3.13949296 11.4744715,4.15183099 L11.4744715,4.15183099 L1.90497325,9.27960563 C1.33166233,7.94450704 1.58136221,6.37476056 2.59414492,5.03678873 L2.59414492,5.03678873 L2.70101647,4.89504225 L2.80788802,4.77149296 C3.29530219,4.2016338 3.8955807,3.72276056 4.59474036,3.34923944 C5.29390002,2.97571831 6.03900447,2.73149296 6.81607049,2.62230986 L6.81607049,2.62230986 L6.98886281,2.5983662 L7.17064432,2.58304225 C7.34343664,2.57059155 7.51323256,2.56292958 7.68302848,2.56292958 Z M7.02881479,3.72276056 C7.08974156,3.51684507 7.23157109,3.3444507 7.4303322,3.23814085 C7.56117493,3.16822535 7.71099486,3.13183099 7.86081479,3.13183099 C8.16644744,3.13183099 8.45310291,3.28507042 8.60591923,3.53121127 C8.84263472,3.91143662 8.69980639,4.40084507 8.29129738,4.62112676 C8.16045465,4.69104225 8.01263232,4.72743662 7.86081479,4.72743662 C7.55418334,4.72743662 7.26752788,4.57611268 7.11571035,4.32901408 C7.0008484,4.14321127 6.97088442,3.93059155 7.02881479,3.72276056 L7.02881479,3.72276056 Z M3.14248586,5.53577465 C3.2743274,5.46585915 3.42214972,5.42850704 3.57196965,5.42850704 C3.8805987,5.42850704 4.16325897,5.58174648 4.31807289,5.82692958 C4.55378958,6.20907042 4.41295885,6.69847887 4.00345104,6.91780282 C3.87160951,6.98867606 3.72478598,7.02507042 3.57396725,7.02507042 C3.2673358,7.02507042 2.98068034,6.87183099 2.82886281,6.62569014 C2.59214732,6.24450704 2.73297806,5.75605634 3.14248586,5.53577465 L3.14248586,5.53577465 Z M1.06298526,11.212338 C0.877208548,11.212338 0.693429436,11.2592676 0.532622713,11.3454648 C0.0182409607,11.620338 -0.153552557,12.24 0.150082497,12.7255775 L1.16985681,14.3661972 L3.65586881,14.3661972 L2.0138424,11.7266479 C1.8160801,11.4086761 1.45251707,11.212338 1.06298526,11.212338 L1.06298526,11.212338 Z M2.53921095,4.828 C2.57017373,4.84140845 2.60113652,4.84811268 2.6340969,4.84811268 C2.71699726,4.84811268 2.79690122,4.80501408 2.83485561,4.73030986 C2.88679318,4.62878873 2.8388508,4.50619718 2.72798406,4.45735211 L0.967100505,3.67966197 C0.936137719,3.66625352 0.902178536,3.65859155 0.871215751,3.65859155 C0.78931419,3.65859155 0.708411429,3.70264789 0.671455847,3.77639437 C0.618519472,3.87983099 0.66546305,4.00146479 0.775330997,4.05030986 L2.53921095,4.828 L2.53921095,4.828 Z" id="Shape" fill-opacity="0.8"></path>
                        <path d="M6.76513172,3.07915493 L6.78410891,3.07915493 C6.89797205,3.07915493 6.99485561,2.77076056 7.0038448,2.66253521 L7.15865873,0.538253521 C7.16864672,0.426197183 7.07775597,0 6.95790002,0 L6.93792403,0 C6.82406089,0 6.72717734,0.286366197 6.71818814,0.392676056 L6.56237541,2.52940845 C6.55438502,2.64146479 6.64527577,3.07915493 6.76513172,3.07915493 L6.76513172,3.07915493 Z" id="Path" fill-opacity="0.800000012"></path>
                    </g>
                    <text id="dDe" font-family=".AppleSystemUIFont" font-size="60" font-weight="normal" fill="#FFFFFF">
                        <tspan x="0" y="58">dDe</tspan>
                    </text>
                    <text id="v" font-family=".AppleSystemUIFont" font-size="60" font-weight="normal" fill="#FFFFFF">
                        <tspan x="105" y="58">v</tspan>
                    </text>
                </g>
                <g id="Tools" transform="translate(303.000000, 0.000000)">
                    <g id="T" transform="translate(0.000000, 14.128106)" fill="#FFFFFF">
                        <path d="M37.1701039,0 L31.0169039,0 C30.6264124,0 30.3069193,0.302389986 30.3069193,0.671977746 L30.3069193,1.29915698 C29.8335962,1.74714214 29.0171139,2.39672063 28.2006316,2.39672063 C26.9581585,2.39672063 26.4493362,0.559981455 25.1121985,0.335988873 C23.7750608,0.111996291 21.8936016,7.95781511e-16 20.6274624,7.95781511e-16 C19.3613232,7.95781511e-16 14.4742624,0.0783974038 8.55772398,2.40792026 C2.64118555,4.73744311 0.0734078636,9.67647955 0.00240940238,11.5244184 C-0.0330898282,12.4987861 0.321902478,13.8875401 1.18571709,12.7675772 C2.0495317,11.6476143 5.36279323,8.03013407 8.01340245,7.76134297 C10.6521786,7.5037515 13.4211186,7.85094 15.5510724,9.68767918 C17.5981947,11.4460209 18.0715178,13.1371649 18.0715178,17.9194066 L17.2905347,18.1433992 C16.7817124,18.2889943 16.4622193,18.781778 16.4622193,19.1513658 C16.4622193,19.1513658 16.4385532,19.8793417 16.4385532,27.0359047 C16.4385532,37.6307538 15.1605809,49.5023607 15.1605809,49.5023607 C15.1605809,49.8719484 15.480074,50.1743384 15.8705655,50.1743384 L25.8103501,50.1743384 C26.2008416,50.1743384 26.5203347,49.8719484 26.5203347,49.5023607 C26.5203347,49.5023607 25.2423624,37.6307538 25.2423624,27.0359047 C25.2423624,19.8793417 25.2186962,19.1513658 25.2186962,19.1513658 C25.2186962,18.781778 24.9465355,18.2777947 24.3903808,18.1433992 L23.4437347,17.9194066 C23.4437347,13.6411483 23.3964024,11.8716069 24.1892185,10.538851 C25.0175339,9.15009698 26.8279947,7.97413592 27.7036424,7.72774408 C28.4017939,7.52615076 29.5969347,7.87333926 30.3069193,8.45571998 L30.3069193,10.0796662 C30.3069193,10.449254 30.6264124,10.7516439 31.0169039,10.7516439 L37.1701039,10.7516439 C37.5605954,10.7516439 37.8800885,10.449254 37.8800885,10.0796662 L37.8800885,0.671977746 C37.8800885,0.302389986 37.5605954,0 37.1701039,0 L37.1701039,0 Z" id="Shape"></path>
                    </g>
                    <text id="o" font-family=".AppleSystemUIFont" font-size="60" font-weight="normal" fill="#FFFFFF">
                        <tspan x="34" y="68.4634146">o</tspan>
                    </text>
                    <g id="o" transform="translate(71.789125, 0.000000)">
                        <text stroke="#FFFFFF" stroke-width="12" font-family=".AppleSystemUIFont" font-size="64" font-weight="normal" fill="#FFFFFF">
                            <tspan x="4.21087526" y="62">o</tspan>
                        </text>
                        <ellipse id="椭圆形" fill="#FFFFFF" cx="21" cy="43.7560976" rx="21" ry="21.8780488"></ellipse>
                        <g id="图形" transform="translate(10.230831, 25.682951)" fill="#9BDF46">
                            <path d="M19.5888426,20.435483 L19.6479235,20.0771082 C19.7211875,19.632788 19.7579135,19.1800523 19.7579135,18.7308081 C19.7579135,18.2814744 19.7211875,17.8280224 19.6473599,17.3832546 L19.5886547,17.0247008 L21.1128289,15.7339966 C21.4211015,15.4724 21.495023,15.0340781 21.2885687,14.6922657 L19.6640791,12.011483 C19.5081582,11.7532884 19.217638,11.5931255 18.9049508,11.5931255 C18.8113983,11.5931255 18.7180336,11.6077183 18.6283321,11.6360087 L16.688901,12.2504293 L16.3926512,12.0211519 C15.6549386,11.4512259 14.8335358,10.9981321 13.9514553,10.6744936 L13.5954672,10.5444115 L13.1849067,8.63991339 C13.1016862,8.25432256 12.7406259,7.97383592 12.3270597,7.97383592 L9.07742318,7.97383592 C8.66376305,7.97383592 8.30298455,8.25441212 8.21976408,8.64062962 L7.80920357,10.5448592 L7.45349719,10.6752993 C6.57151067,10.9984902 5.75029579,11.451763 5.01286488,12.0223157 L4.71623939,12.2515037 L2.77624479,11.637083 C2.68701295,11.6087926 2.59393002,11.5942893 2.50028351,11.5942893 C2.18834769,11.5942893 1.89763971,11.7544523 1.74087339,12.0121097 L0.11572646,14.6951306 C-0.0900703768,15.0364058 -0.0156792028,15.4741906 0.293438763,15.7357871 L1.81723718,17.0263122 L1.75834417,17.3848661 C1.68554974,17.8283805 1.6481663,18.2814744 1.6481663,18.7308976 C1.6481663,19.1815742 1.68545584,19.6349366 1.75871988,20.0783616 L1.81770683,20.4369154 L0.29390841,21.7269929 C-0.0153034603,21.9893057 -0.0893189543,22.4270904 0.117229336,22.7685447 L1.74209459,25.4505808 C1.89810945,25.7083278 2.18834782,25.8684908 2.50037754,25.8684908 C2.59449366,25.8684908 2.6869191,25.8539875 2.77586918,25.8256971 L4.71717878,25.2107392 L5.0135225,25.4401958 C5.7509534,26.0102113 6.57235616,26.4633051 7.45500016,26.7869435 L7.81061261,26.9173837 L8.22089131,28.8218818 C8.30467533,29.206846 8.6656417,29.4874222 9.07911396,29.4875117 L12.3286566,29.4875117 C12.7427864,29.4875117 13.103377,29.2072041 13.1861278,28.8214342 L13.5969701,26.916578 L13.9529583,26.7862273 C14.8344751,26.4630365 15.6559718,26.0097636 16.3934966,25.4391214 L16.6900282,25.2099335 L18.6298349,25.8244437 C18.7189729,25.8526445 18.8119619,25.8671478 18.9057962,25.8671478 C19.2176381,25.8671478 19.5087218,25.7069849 19.6649245,25.4493275 L21.2904473,22.766396 C21.4962441,22.4250313 21.4221347,21.9875151 21.112641,21.7261871 L19.5888426,20.435483 L19.5888426,20.435483 Z M10.7032278,22.3774927 C8.59331689,22.3774927 6.87668375,20.7415742 6.87668375,18.7308081 C6.87668375,16.7201314 8.59331692,15.084213 10.7032278,15.084213 C12.812575,15.084213 14.5289264,16.7201314 14.5289264,18.7308081 C14.5289264,20.7415742 12.812575,22.3774927 10.7032278,22.3774927 L10.7032278,22.3774927 Z" id="Shape"></path>
                            <path d="M27.882121,10.7801349 L27.418491,10.4316081 C27.4431941,10.2732356 27.4515537,10.1102973 27.4413156,9.94449418 C27.4311713,9.77824339 27.4031807,9.61745374 27.3592223,9.46275185 L27.7772031,9.06507495 C27.8459586,8.99954151 27.8568543,8.8969441 27.8035969,8.81950363 L27.3077496,8.10060548 C27.2541165,8.0230755 27.1505136,7.99227838 27.0603425,8.02647751 L26.5097349,8.2356115 C26.2449511,8.03462441 25.9363028,7.88457794 25.6017303,7.79988582 L25.4493787,7.25583302 C25.4242998,7.16630647 25.3366647,7.10578653 25.2392611,7.11115812 L24.3387707,7.16111394 C24.2411792,7.16666458 24.1614341,7.23640576 24.1473449,7.32826001 L24.0627155,7.88556272 C23.7401658,8.00642354 23.4519,8.18986343 23.2132282,8.41914093 L22.6415807,8.27240693 C22.5474646,8.24850335 22.4488399,8.29049128 22.4052572,8.37357192 L21.9998628,9.14206775 C21.95628,9.22505886 21.979856,9.32586575 22.0564076,9.38325226 L22.5199436,9.73204766 C22.4948648,9.89015152 22.4867869,10.0530898 22.4973069,10.219072 C22.5071694,10.3853228 22.53516,10.5463811 22.5798699,10.7009039 L22.1612316,11.0981332 C22.092476,11.1637561 22.0814865,11.2668012 22.1354013,11.3441521 L22.6306851,12.0626026 C22.684506,12.1401326 22.7878271,12.1711983 22.8781861,12.1368201 L23.4285118,11.9280442 C23.6935774,12.1291209 24.0021318,12.2791673 24.3367043,12.3637699 L24.4891499,12.9079122 C24.5142288,12.9973493 24.6023335,13.0577797 24.6993614,13.0524081 L25.6000396,13.0022732 C25.6973493,12.9969016 25.7770944,12.9273395 25.7909958,12.8353958 L25.8762827,12.2780035 C26.1981749,12.1571427 26.4863468,11.9735237 26.7250186,11.7444253 L27.2970418,11.8911593 C27.3907822,11.9151524 27.4895008,11.8727168 27.5334593,11.7899943 L27.938478,11.0211404 C27.9819667,10.9385074 27.9583907,10.83779 27.882121,10.7801349 L27.882121,10.7801349 Z M25.0332764,11.1290199 C24.4276269,11.1625028 23.9058553,10.7203312 23.8704443,10.1426164 C23.8353152,9.56543879 24.2996966,9.06802932 24.9053461,9.03445686 C25.5114653,9.00079486 26.033049,9.44323506 26.0682721,10.0205917 C26.1034012,10.5981275 25.6393016,11.0951788 25.0332764,11.1290199 L25.0332764,11.1290199 Z" id="Shape"></path>
                            <path d="M22.6776492,6.56540437 L22.903077,5.0790847 C22.9271227,4.91901125 22.8299069,4.76457797 22.6702288,4.70942962 L21.7004194,4.37567467 C21.6496981,4.10073867 21.5692016,3.82678745 21.4558301,3.55731255 C21.3431162,3.28739001 21.2030691,3.03573092 21.0406672,2.80287238 L21.5026064,1.92443796 C21.5785944,1.77976306 21.537172,1.60375389 21.4039817,1.50375275 L20.1666646,0.574646266 C20.0334743,0.474197485 19.8436452,0.477778559 19.7141182,0.582076955 L18.9237117,1.21780493 C18.3687835,1.02406948 17.7707421,0.937944969 17.1675347,0.974292731 L16.6000201,0.153244815 C16.5065615,0.0180597274 16.3257495,-0.0356562032 16.1682318,0.0244161329 L14.7058625,0.581181708 C14.5477812,0.641433082 14.4560133,0.7989998 14.4856007,0.958446544 L14.6680094,1.92595988 C14.2047551,2.29597309 13.8335506,2.75121555 13.5713029,3.25641382 L12.5393129,3.31451654 C12.3695845,3.32427492 12.2306646,3.44612055 12.2066189,3.60664164 L11.9809093,5.0926032 C11.9565818,5.25267665 12.0541733,5.40719946 12.2140393,5.46216877 L13.1835669,5.79592373 C13.2338185,6.07094926 13.3146908,6.34490048 13.4279683,6.61419631 C13.540964,6.88420835 13.6807293,7.13595701 13.8433191,7.36890505 L13.3815677,8.24716044 C13.305204,8.39201437 13.3466264,8.56802357 13.4800046,8.66793518 L14.7176035,9.59713117 C14.8509817,9.69749042 15.0406229,9.69426748 15.170056,9.58970048 L15.9603685,8.95397251 C16.5156725,9.14788699 17.1132442,9.23410107 17.7164516,9.19775327 L18.284248,10.0187117 C18.3774249,10.1538967 18.5582368,10.2077022 18.7160363,10.1474508 L20.1784995,9.59086433 C20.3363929,9.53043392 20.4281609,9.37295673 20.3983856,9.213689 L20.2162587,8.24599659 C20.679419,7.87598338 21.0504357,7.42074093 21.3129652,6.91563216 L22.3446734,6.85752944 C22.5144018,6.84750249 22.6534157,6.72547782 22.6776492,6.56540437 L22.6776492,6.56540437 Z M18.1548148,6.78626633 C17.1708222,7.1608454 16.0510093,6.70291712 15.6580134,5.7651266 C15.2649236,4.82751511 15.7455546,3.76000063 16.7292654,3.38533206 C17.7131641,3.01057396 18.8332587,3.46886031 19.2263486,4.4064718 C19.6193445,5.34408328 19.1385257,6.4116873 18.1548148,6.78626633 L18.1548148,6.78626633 Z" id="Shape"></path>
                        </g>
                    </g>
                    <text id="ls" font-family=".AppleSystemUIFont" font-size="60" font-weight="normal" fill="#FFFFFF">
                        <tspan x="117" y="68.4634146">ls</tspan>
                    </text>
                </g>
                <g id="banshou" transform="translate(167.794697, 40.945366) rotate(-125.000000) translate(-167.794697, -40.945366) translate(140.294697, 18.945366)" fill="#FFFFFF">
                    <path d="M49.5514758,23.8960091 C46.0860578,21.5343951 41.7342762,21.4854337 38.3108648,23.4050237 L17.7581547,9.39275156 C17.8738592,6.38280249 16.4863373,3.3841283 13.8210327,1.56470382 C12.0128237,0.331883012 9.91616129,-0.152250363 7.89760877,0.0412285608 L10.7454804,6.09582332 L6.62579141,12.0487575 L0.0646256365,11.5027682 C0.623511911,13.4795423 1.84654947,15.2763548 3.67197115,16.522693 C6.34032062,18.3405602 9.6329276,18.5288066 12.3824318,17.3201551 L32.9329049,31.3300601 C32.4122969,35.2286667 34.0536602,39.2688629 37.5175868,41.6304147 C42.4035851,44.9596725 49.0570286,43.6893519 52.3812026,38.7936997 C55.702394,33.8958672 54.435175,27.2252669 49.5514758,23.8960091 L49.5514758,23.8960091 Z M46.3654388,38.7004485 L39.9146957,38.1649243 L37.1517071,32.2941532 L40.8431901,26.9608997 L47.2931876,27.4986042 L50.056984,33.3694999 L46.3654388,38.7004485 L46.3654388,38.7004485 Z" id="Shape"></path>
                </g>
            </g>
        </g>
    </g>
</svg>