<?xml version="1.0" encoding="UTF-8" standalone="no"?>
<svg width="512px" height="200px" viewBox="0 0 512 200" version="1.1" xmlns="http://www.w3.org/2000/svg" xmlns:xlink="http://www.w3.org/1999/xlink">
    <!-- Generator: Sketch 3.6.1 (26313) - http://www.bohemiancoding.com/sketch -->
    <title>Artboard 11</title>
    <desc>Created with Sketch.</desc>
    <defs></defs>
    <g id="Page-1" stroke="none" stroke-width="1" fill="none" fill-rule="evenodd">
        <g id="Artboard-11">
            <g id="androiddevtools" transform="translate(23.000000, 59.000000)">
                <text id="A" font-family="Roboto-Medium, Roboto" font-size="60" font-weight="400" fill="#FFFFFF">
                    <tspan x="0" y="67">A</tspan>
                </text>
                <g id="n" transform="translate(55.526912, 50.597980) rotate(-135.000000) translate(-55.526912, -50.597980) translate(37.526912, 32.597980)" fill="#FFFFFF">
                    <path d="M29.3356688,21.2307805 C31.6882925,15.6713464 30.6068803,9.00580072 26.0758151,4.47488522 C22.0798724,0.477917134 16.4207379,-0.841481611 11.3246812,0.516688931 C8.81658337,1.18506859 24.7257015,11.2246515 17.9757123,17.9755752 C11.2239869,24.7259202 1.18812331,8.8115406 0.518564181,11.3195556 C-0.842544715,16.4166014 0.475740208,22.0784424 4.47399771,26.0759892 C9.00581916,30.6088184 15.6730539,31.6886421 21.2332302,29.3339783 L21.2352665,29.3319422 L25.9513947,34.0480704 L25.9494365,34.0500287 C28.1867014,36.2866411 31.8140105,36.2877985 34.0495393,34.0500287 C36.2849104,31.8153095 36.2873802,28.1942394 34.0569488,25.9570334 L34.0594353,25.9545469 L29.3356689,21.2307805 Z M28.6496637,31.3493121 C29.3950329,32.0952353 30.6033643,32.095814 31.3493121,31.3493121 C32.0969961,30.6033888 32.09526,29.3950973 31.3493121,28.6491741 C30.6033643,27.9032508 29.3950329,27.9032508 28.6496637,28.6491741 C27.9037158,29.3962547 27.9037158,30.6045462 28.6496637,31.3493121 L28.6496637,31.3493121 Z" id="Shape"></path>
                </g>
                <g id="dro" transform="translate(72.000000, 11.000000)" font-size="60" font-family="Roboto-Medium, Roboto" fill="#FFFFFF" font-weight="400">
                    <text>
                        <tspan x="0" y="56">dro</tspan>
                    </text>
                </g>
                <g id="dDev" transform="translate(180.000000, 11.000000)">
                    <g id="android" transform="translate(51.500000, 42.600006) scale(-1, 1) translate(-51.500000, -42.600006) translate(45.000000, 35.100006)" fill="#346473">
                        <path d="M12.1749916,5.386 L2.56054742,10.764 L5.08351501,15 L13,15 L13,6.77 L12.1749916,5.386 Z M2.71636014,5.111 L2.6094886,5.259 C1.59670588,6.656 1.347006,8.295 1.92031693,9.689 L11.4898151,4.335 C10.6288499,3.278 9.2604946,2.676 7.69837215,2.676 C7.52857623,2.676 7.35878031,2.684 7.185988,2.697 L7.00420648,2.713 L6.83141417,2.738 C6.05434814,2.852 5.3092437,3.107 4.61008403,3.497 C3.91092437,3.887 3.31064586,4.387 2.82323169,4.982 L2.71636014,5.111 Z M7.04415846,3.887 C7.10508523,3.672 7.24691477,3.492 7.44567587,3.381 C7.57651861,3.308 7.72633854,3.27 7.87615846,3.27 C8.18179112,3.27 8.46844658,3.43 8.62126291,3.687 C8.85797839,4.084 8.71515006,4.595 8.30664106,4.825 C8.17579832,4.898 8.02797599,4.936 7.87615846,4.936 C7.56952701,4.936 7.28287155,4.778 7.13105402,4.52 C7.01619208,4.326 6.98622809,4.104 7.04415846,3.887 L7.04415846,3.887 Z M3.15782953,5.78 C3.28967107,5.707 3.4374934,5.668 3.58731333,5.668 C3.89594238,5.668 4.17860264,5.828 4.33341657,6.084 C4.56913325,6.483 4.42830252,6.994 4.01879472,7.223 C3.88695318,7.297 3.74012965,7.335 3.58931092,7.335 C3.28267947,7.335 2.99602401,7.175 2.84420648,6.918 C2.607491,6.52 2.74832173,6.01 3.15782953,5.78 L3.15782953,5.78 Z M1.07832893,11.707 C0.892552221,11.707 0.708773109,11.756 0.547966387,11.846 C0.0335846339,12.133 -0.138208884,12.78 0.16542617,13.287 L1.18520048,15 L3.67121248,15 L2.02918607,12.244 C1.83142377,11.912 1.46786074,11.707 1.07832893,11.707 L1.07832893,11.707 Z M2.55455462,5.041 C2.58551741,5.055 2.61648019,5.062 2.64944058,5.062 C2.73234094,5.062 2.8122449,5.017 2.85019928,4.939 C2.90213685,4.833 2.85419448,4.705 2.74332773,4.654 L0.982444178,3.842 C0.951481393,3.828 0.917522209,3.82 0.886559424,3.82 C0.804657863,3.82 0.723755102,3.866 0.68679952,3.943 C0.633863145,4.051 0.680806723,4.178 0.79067467,4.229 L2.55455462,5.041 L2.55455462,5.041 Z" id="Shape" fill-opacity="0.8"></path>
                        <path d="M6.78047539,3.215 L6.79945258,3.215 C6.91331573,3.215 7.01019928,2.893 7.01918848,2.78 L7.1740024,0.562 C7.1839904,0.445 7.09309964,0 6.9732437,0 L6.95326771,0 C6.83940456,0 6.74252101,0.299 6.73353181,0.41 L6.57771909,2.641 C6.56972869,2.758 6.66061945,3.215 6.78047539,3.215 L6.78047539,3.215 Z" id="Path" fill-opacity="0.800000012"></path>
                    </g>
                    <text id="dDe" font-family="Roboto-Medium, Roboto" font-size="60" font-weight="400" fill="#FFFFFF">
                        <tspan x="0" y="56">dDe</tspan>
                    </text>
                    <text id="v" font-family="Roboto-Medium, Roboto" font-size="60" font-weight="400" fill="#FFFFFF">
                        <tspan x="105" y="56">v</tspan>
                    </text>
                </g>
                <g id="Tools" transform="translate(303.000000, 0.000000)">
                    <g id="T" transform="translate(0.000000, 14.600006)" fill="#FFFFFF">
                        <path d="M37.1701039,0.252618601 L31.0169039,0.252618601 C30.6264124,0.252618601 30.3069193,0.570515766 30.3069193,0.959056745 L30.3069193,1.61839901 C29.8335962,2.08935777 29.0171139,2.77224798 28.2006316,2.77224798 C26.9581585,2.77224798 26.4493362,0.841317054 25.1121985,0.605837673 C23.7750608,0.370358291 21.8936016,0.252618601 20.6274624,0.252618601 C19.3613232,0.252618601 14.4742624,0.335036384 8.55772398,2.78402195 C2.64118555,5.23300751 0.0734078636,10.4253279 0.00240940238,12.3680328 C-0.0330898282,13.3923681 0.321902478,14.8523402 1.18571709,13.6749433 C2.0495317,12.4975464 5.36279323,8.69455442 8.01340245,8.41197916 C10.6521786,8.14117787 13.4211186,8.50617091 15.5510724,10.4371018 C17.5981947,12.285615 18.0715178,14.0634843 18.0715178,19.0909691 L17.2905347,19.3264485 C16.7817124,19.4795101 16.4622193,19.9975647 16.4622193,20.3861057 C16.4622193,20.3861057 16.4385532,21.1514137 16.4385532,28.6749799 C16.4385532,39.8131547 15.1605809,52.2935619 15.1605809,52.2935619 C15.1605809,52.6821028 15.480074,53 15.8705655,53 L25.8103501,53 C26.2008416,53 26.5203347,52.6821028 26.5203347,52.2935619 C26.5203347,52.2935619 25.2423624,39.8131547 25.2423624,28.6749799 C25.2423624,21.1514137 25.2186962,20.3861057 25.2186962,20.3861057 C25.2186962,19.9975647 24.9465355,19.4677361 24.3903808,19.3264485 L23.4437347,19.0909691 C23.4437347,14.5933129 23.3964024,12.7330258 24.1892185,11.3319235 C25.0175339,9.87195132 26.8279947,8.63568457 27.7036424,8.37665725 C28.4017939,8.16472581 29.5969347,8.52971885 30.3069193,9.14196524 L30.3069193,10.8491908 C30.3069193,11.2377317 30.6264124,11.5556289 31.0169039,11.5556289 L37.1701039,11.5556289 C37.5605954,11.5556289 37.8800885,11.2377317 37.8800885,10.8491908 L37.8800885,0.959056745 C37.8800885,0.570515766 37.5605954,0.252618601 37.1701039,0.252618601 L37.1701039,0.252618601 Z" id="Shape"></path>
                    </g>
                    <text id="o" font-family="Roboto-Medium, Roboto" font-size="60" font-weight="400" fill="#FFFFFF">
                        <tspan x="34" y="67">o</tspan>
                    </text>
                    <g id="o" transform="translate(73.000000, 0.000000)">
                        <text stroke="#FFFFFF" stroke-width="12" font-family="Roboto-Bold, Roboto" font-size="64" font-weight="bold" fill="#FFFFFF">
                            <tspan x="2" y="59">o</tspan>
                        </text>
                        <g id="chilun" transform="translate(6.000000, 27.000000)" fill="#9BDF46">
                            <g id="图形">
                                <path d="M19.6087985,22.4834823 L19.6678794,22.1067294 C19.7411434,21.6396235 19.7778694,21.1636706 19.7778694,20.6913882 C19.7778694,20.2190118 19.7411434,19.7423059 19.6673158,19.2747294 L19.6086106,18.8977882 L21.1327847,17.5408941 C21.4410573,17.2658823 21.5149789,16.8050823 21.3085245,16.4457412 L19.684035,13.6274823 C19.5281141,13.3560471 19.2375939,13.1876706 18.9249067,13.1876706 C18.8313541,13.1876706 18.7379894,13.2030118 18.6482879,13.2327529 L16.7088569,13.8786823 L16.4126071,13.6376471 C15.6748944,13.0384941 14.8534917,12.5621647 13.9714112,12.2219294 L13.6154231,12.0851765 L13.2048625,10.0830117 C13.1216421,9.67764703 12.7605818,9.38277647 12.3470156,9.38277647 L9.09737904,9.38277647 C8.68371891,9.38277647 8.32294041,9.67774119 8.23971994,10.0837647 L7.82915944,12.0856471 L7.47345305,12.2227765 C6.59146653,12.5625412 5.77025165,13.0390588 5.03282075,13.6388706 L4.73619525,13.8798118 L2.79620065,13.2338824 C2.70696881,13.2041412 2.61388588,13.1888941 2.52023937,13.1888941 C2.20830356,13.1888941 1.91759557,13.3572706 1.76082925,13.6281412 L0.135682322,16.4487529 C-0.0701145151,16.8075294 0.00427665895,17.2677647 0.313394625,17.5427765 L1.83719304,18.8994823 L1.77830003,19.2764235 C1.70550561,19.7426823 1.66812216,20.2190118 1.66812216,20.6914823 C1.66812216,21.1652706 1.7054117,21.6418823 1.77867574,22.1080471 L1.83766269,22.4849883 L0.313864272,23.8412235 C0.00465240141,24.1169883 -0.0693630926,24.5772235 0.137185198,24.9361883 L1.76205045,27.7557647 C1.91806531,28.0267294 2.20830368,28.1951059 2.5203334,28.1951059 C2.61444953,28.1951059 2.70687497,28.1798588 2.79582504,28.1501177 L4.73713464,27.5036235 L5.03347836,27.7448471 C5.77090926,28.3440941 6.59231202,28.8204235 7.47495602,29.1606588 L7.83056847,29.2977882 L8.24084717,31.2999529 C8.32463119,31.7046588 8.68559756,31.9996235 9.09906982,31.9997177 L12.3486124,31.9997177 C12.7627422,31.9997177 13.1233329,31.7050353 13.2060837,31.2994824 L13.616926,29.2969412 L13.9729141,29.1599059 C14.854431,28.8201412 15.6759277,28.3436236 16.4134525,27.7437177 L16.709984,27.5027765 L18.6497908,28.1488 C18.7389287,28.1784471 18.8319177,28.1936941 18.9257521,28.1936941 C19.237594,28.1936941 19.5286777,28.0253177 19.6848804,27.7544471 L21.3104031,24.9339294 C21.5162,24.5750588 21.4420906,24.1151059 21.1325969,23.8403765 L19.6087985,22.4834823 L19.6087985,22.4834823 Z M10.7231836,24.5250823 C8.61327275,24.5250823 6.89663961,22.8052706 6.89663961,20.6913882 C6.89663961,18.5776 8.61327278,16.8577882 10.7231836,16.8577882 C12.8325309,16.8577882 14.5488823,18.5776 14.5488823,20.6913882 C14.5488823,22.8052706 12.8325309,24.5250823 10.7231836,24.5250823 L10.7231836,24.5250823 Z" id="Shape"></path>
                                <path d="M30.9020768,11.3329883 L30.4384469,10.9665883 C30.46315,10.8000941 30.4715096,10.6288 30.4612714,10.4544941 C30.4511272,10.2797177 30.4231366,10.1106824 30.3791781,9.94804706 L30.797159,9.52997647 C30.8659145,9.46108234 30.8768101,9.35322353 30.8235528,9.27181175 L30.3277054,8.51604703 C30.2740724,8.43454116 30.1704695,8.40216469 30.0802984,8.43811762 L29.5296908,8.65797644 C29.264907,8.44668231 28.9562587,8.28894116 28.6216862,8.19990584 L28.4693345,7.62795291 C28.4442557,7.53383525 28.3566206,7.47021172 28.259217,7.47585878 L27.3587266,7.52837644 C27.2611351,7.53421172 27.18139,7.60752937 27.1673008,7.70409409 L27.0826714,8.28997644 C26.7601217,8.41703525 26.4718558,8.60988231 26.2331841,8.85091763 L25.6615366,8.69665881 C25.5674205,8.67152941 25.4687958,8.71567056 25.4252131,8.80301175 L25.0198186,9.61091763 C24.9762359,9.69816469 24.9998119,9.80414116 25.0763634,9.86447056 L25.5398995,10.2311529 C25.5148206,10.3973647 25.5067428,10.5686588 25.5172628,10.7431529 C25.5271252,10.9179294 25.5551159,11.087247 25.5998257,11.2496941 L25.1811874,11.6672941 C25.1124319,11.7362823 25.1014423,11.8446118 25.1553571,11.9259294 L25.6506409,12.6812235 C25.7044618,12.7627294 25.8077829,12.7953882 25.8981419,12.759247 L26.4484677,12.5397647 C26.7135333,12.7511529 27.0220877,12.9088941 27.3566602,12.9978353 L27.5091058,13.5698823 C27.5341846,13.6639059 27.6222893,13.7274353 27.7193172,13.7217882 L28.6199955,13.6690823 C28.7173052,13.6634353 28.7970503,13.5903059 28.8109517,13.4936471 L28.8962385,12.9076706 C29.2181308,12.7806118 29.5063027,12.5875765 29.7449744,12.3467294 L30.3169976,12.5009882 C30.4107381,12.5262118 30.5094567,12.4816 30.5534151,12.3946353 L30.9584338,11.5863529 C31.0019226,11.4994823 30.9783466,11.3936 30.9020768,11.3329883 L30.9020768,11.3329883 Z M28.0532323,11.6997647 C27.4475827,11.7349647 26.9258112,11.2701177 26.8904002,10.6627765 C26.855271,10.056 27.3196524,9.53308234 27.925302,9.49778822 C28.5314211,9.46239997 29.0530048,9.92752941 29.0882279,10.5344941 C29.1233571,11.1416471 28.6592575,11.6641882 28.0532323,11.6997647 L28.0532323,11.6997647 Z" id="Shape"></path>
                                <path d="M25.697605,6.90211766 L25.9230329,5.33957647 C25.9470785,5.17129412 25.8498627,5.00894119 25.6901847,4.95096472 L24.7203752,4.60009412 C24.669654,4.31105884 24.5891574,4.02305884 24.475786,3.73976472 C24.3630721,3.456 24.223025,3.19143531 24.060623,2.94663531 L24.5225623,2.02315297 C24.5985503,1.87105884 24.5571279,1.68602356 24.4239376,1.58089416 L23.1866204,0.604141187 C23.0534302,0.498541187 22.8636011,0.502305906 22.734074,0.611952937 L21.9436676,1.28028234 C21.3887393,1.07661175 20.790698,0.986070594 20.1874906,1.02428234 L19.619976,0.161129406 C19.5265173,0.01901175 19.3457054,-0.0374588438 19.1881877,0.025694125 L17.7258184,0.611011781 C17.5677371,0.674352969 17.4759692,0.840000031 17.5055566,1.00762353 L17.6879653,2.02475294 C17.224711,2.41374119 16.8535065,2.89232941 16.5912587,3.42343528 L15.5592688,3.48451762 C15.3895404,3.49477644 15.2506204,3.62287056 15.2265748,3.7916235 L15.0008651,5.35378822 C14.9765377,5.52207056 15.0741292,5.68451762 15.2339951,5.74230587 L16.2035228,6.09317647 C16.2537744,6.38230587 16.3346467,6.67030587 16.4479241,6.95341175 C16.5609199,7.23727056 16.7006851,7.50192941 16.863275,7.7468235 L16.4015236,8.67011762 C16.3251599,8.82239997 16.3665823,9.00743528 16.4999604,9.11247056 L17.7375594,10.0893176 C17.8709375,10.1948235 18.0605787,10.1914353 18.1900119,10.0815059 L18.9803244,9.41317647 C19.5356284,9.61703528 20.1332001,9.70767059 20.7364074,9.66945881 L21.3042039,10.5325176 C21.3973807,10.6746353 21.5781927,10.7312 21.7359922,10.6678588 L23.1984554,10.0827294 C23.3563488,10.0192 23.4481168,9.85364706 23.4183415,9.68621175 L23.2362145,8.66889409 C23.6993749,8.27990584 24.0703915,7.80131762 24.3329211,7.27030584 L25.3646293,7.2092235 C25.5343577,7.19868234 25.6733715,7.0704 25.697605,6.90211766 L25.697605,6.90211766 Z M21.1747707,7.13430587 C20.1907781,7.52809412 19.0709652,7.04668234 18.6779693,6.0608 C18.2848794,5.07510587 18.7655104,3.95284706 19.7492212,3.55896472 C20.7331199,3.16498825 21.8532146,3.64677647 22.2463045,4.63247059 C22.6393004,5.61816472 22.1584815,6.74051766 21.1747707,7.13430587 L21.1747707,7.13430587 Z" id="Shape"></path>
                            </g>
                        </g>
                    </g>
                    <text id="ls" font-family="Roboto-Medium, Roboto" font-size="60" font-weight="400" fill="#FFFFFF">
                        <tspan x="117" y="67">ls</tspan>
                    </text>
                </g>
            </g>
            <g id="android" transform="translate(185.578572, 76.500000)" fill="#25A55F">
                <path d="M0.974061314,4.76376794 L0.974061314,4.76376794 C0.410941488,4.76376794 0.00139981069,5.15264696 0.00139981069,5.63874573 L0.00139981069,9.43031613 C0.00139981069,9.91641489 0.410941503,10.3052939 0.922868608,10.3052939 L0.974061314,10.3052939 C1.48598842,10.3052939 1.89553011,9.91641489 1.89553011,9.43031613 L1.89553011,5.63874573 C1.89553011,5.15264695 1.48598842,4.76376794 0.974061314,4.76376794 L0.974061314,4.76376794 Z" id="Shape"></path>
                <path d="M2.30507179,10.8886124 C2.30507179,11.3261013 2.66342076,11.6663705 3.12415516,11.6663705 L4.04562396,11.6663705 L4.04562396,13.7079853 C4.04562396,14.1940841 4.45516565,14.5829631 4.96709275,14.5829631 L5.01828547,14.5829631 C5.53021258,14.5829631 5.93975427,14.1940841 5.93975427,13.7079853 L5.93975427,11.6663705 L7.21957204,11.6663705 L7.21957204,13.7079853 C7.21957204,14.1940841 7.62911373,14.5829631 8.14104084,14.5829631 L8.19223354,14.5829631 C8.70416065,14.5829631 9.11370234,14.1940841 9.11370234,13.7079853 L9.11370235,11.6663705 L10.0351712,11.6663705 C10.4959056,11.6663705 10.8542545,11.3261013 10.8542545,10.8886124 L10.8542545,4.90959757 L2.30507179,4.90959757 L2.30507179,10.8886124 L2.30507179,10.8886124 Z" id="Shape"></path>
                <path d="M8.65296796,1.2638568 L9.36966591,0.194439517 C9.42085862,0.145829645 9.36966591,0.0486098864 9.31847321,1.42411749e-08 C9.26728049,0 9.16489506,0 9.11370235,0.0486098722 L8.3970044,1.11802716 C7.83388457,0.923587657 7.21957204,0.777758026 6.5540668,0.777758026 C5.88856156,0.777758026 5.27424903,0.874977785 4.71112921,1.11802716 L3.99443125,0.0486098722 C3.94323854,0 3.84085312,0 3.78966041,0 C3.68727498,0.0486098722 3.68727498,0.145829631 3.7384677,0.243049389 L4.45516566,1.31246668 C3.17534788,1.84717533 2.30507179,3.01381237 2.30507179,4.27766916 L2.30507179,4.52071855 L10.8030618,4.52071855 L10.8030618,4.27766916 C10.8030618,3.01381237 9.93278572,1.84717533 8.65296796,1.2638568 L8.65296796,1.2638568 Z M4.55755108,3.159642 C4.35278024,3.159642 4.14800938,2.9652025 4.14800938,2.77076298 C4.14800938,2.57632348 4.35278022,2.38188396 4.55755108,2.38188396 C4.76232191,2.38188396 4.96709277,2.57632347 4.96709277,2.77076298 C4.96709277,2.96520249 4.81351463,3.159642 4.55755108,3.159642 L4.55755108,3.159642 Z M8.55058253,3.159642 C8.34581169,3.159642 8.14104084,2.9652025 8.14104084,2.77076298 C8.14104084,2.57632348 8.34581168,2.38188396 8.55058253,2.38188396 C8.75535337,2.38188396 8.96012422,2.57632347 8.96012422,2.77076298 C8.96012422,2.96520249 8.75535337,3.159642 8.55058253,3.159642 L8.55058253,3.159642 Z" id="Shape"></path>
                <path d="M12.185265,4.76376794 L12.185265,4.76376794 C11.6221452,4.76376794 11.2126035,5.15264696 11.2126035,5.63874573 L11.2126035,9.43031613 C11.2126035,9.91641489 11.6221452,10.3052939 12.1340723,10.3052939 L12.185265,10.3052939 C12.6971921,10.3052939 13.1067338,9.91641489 13.1067338,9.43031613 L13.1067338,5.63874573 C13.1067338,5.15264695 12.6971921,4.76376794 12.185265,4.76376794 L12.185265,4.76376794 Z" id="Shape"></path>
            </g>
            <g id="banshou" transform="translate(192.794697, 97.945366) rotate(-125.000000) translate(-192.794697, -97.945366) translate(165.294697, 75.945366)" fill="#FFFFFF">
                <path d="M49.5514758,23.8960091 C46.0860578,21.5343951 41.7342762,21.4854337 38.3108648,23.4050237 L17.7581547,9.39275156 C17.8738592,6.38280249 16.4863373,3.3841283 13.8210327,1.56470382 C12.0128237,0.331883012 9.91616129,-0.152250363 7.89760877,0.0412285608 L10.7454804,6.09582332 L6.62579141,12.0487575 L0.0646256365,11.5027682 C0.623511911,13.4795423 1.84654947,15.2763548 3.67197115,16.522693 C6.34032062,18.3405602 9.6329276,18.5288066 12.3824318,17.3201551 L32.9329049,31.3300601 C32.4122969,35.2286667 34.0536602,39.2688629 37.5175868,41.6304147 C42.4035851,44.9596725 49.0570286,43.6893519 52.3812026,38.7936997 C55.702394,33.8958672 54.435175,27.2252669 49.5514758,23.8960091 L49.5514758,23.8960091 Z M46.3654388,38.7004485 L39.9146957,38.1649243 L37.1517071,32.2941532 L40.8431901,26.9608997 L47.2931876,27.4986042 L50.056984,33.3694999 L46.3654388,38.7004485 L46.3654388,38.7004485 Z" id="Shape"></path>
            </g>
        </g>
    </g>
</svg>